<?xml version="1.0" encoding="UTF-8"?>
<svg width="700pt" height="700pt" version="1.1" viewBox="0 0 700 700" xmlns="http://www.w3.org/2000/svg" xmlns:xlink="http://www.w3.org/1999/xlink">
 <g>
  <path fill="#c7c7c7" d="m103.6 190.4c0 11.883 4.7188 23.277 13.121 31.68s19.797 13.121 31.676 13.121v224c0 23.766 9.4414 46.555 26.246 63.359 16.801 16.801 39.594 26.242 63.355 26.242h224c23.762 0 46.555-9.4414 63.355-26.242 16.805-16.805 26.246-39.594 26.246-63.359v-224c11.879 0 23.273-4.7188 31.676-13.121s13.121-19.797 13.121-31.68v-44.797c0-11.883-4.7188-23.277-13.121-31.68s-19.797-13.121-31.676-13.121h-89.602v-44.801c0-11.883-4.7188-23.277-13.121-31.68-8.4023-8.3984-19.797-13.121-31.68-13.121h-134.4c-11.883 0-23.277 4.7227-31.68 13.121-8.4023 8.4023-13.121 19.797-13.121 31.68v44.801h-89.602c-11.879 0-23.273 4.7188-31.676 13.121s-13.121 19.797-13.121 31.68zm403.2 268.8c0 11.883-4.7227 23.277-13.121 31.68-8.4023 8.4023-19.797 13.121-31.68 13.121h-224c-11.883 0-23.277-4.7188-31.68-13.121-8.3984-8.4023-13.121-19.797-13.121-31.68v-224h313.6zm-224-403.2h134.4v44.801h-134.4zm-134.4 89.602h403.2v44.801l-403.2-0.003906z"/>
  <path fill="#c7c7c7" d="m260.4 459.2c5.9414 0 11.641-2.3594 15.84-6.5586 4.2031-4.2031 6.5625-9.8984 6.5625-15.84v-134.4c0-8-4.2695-15.395-11.199-19.398-6.9336-4-15.473-4-22.402 0-6.9297 4.0039-11.199 11.398-11.199 19.398v134.4c0 5.9414 2.3594 11.637 6.5625 15.84 4.1992 4.1992 9.8984 6.5586 15.836 6.5586z"/>
  <path fill="#c7c7c7" d="m350 459.2c5.9414 0 11.637-2.3594 15.84-6.5586 4.1992-4.2031 6.5586-9.8984 6.5586-15.84v-134.4c0-8-4.2695-15.395-11.199-19.398-6.9297-4-15.469-4-22.398 0-6.9297 4.0039-11.199 11.398-11.199 19.398v134.4c0 5.9414 2.3594 11.637 6.5586 15.84 4.2031 4.1992 9.8984 6.5586 15.84 6.5586z"/>
  <path fill="#c7c7c7" d="m439.6 459.2c5.9375 0 11.637-2.3594 15.836-6.5586 4.2031-4.2031 6.5625-9.8984 6.5625-15.84v-134.4c0-8-4.2695-15.395-11.199-19.398-6.9297-4-15.469-4-22.402 0-6.9297 4.0039-11.199 11.398-11.199 19.398v134.4c0 5.9414 2.3594 11.637 6.5625 15.84 4.1992 4.1992 9.8984 6.5586 15.84 6.5586z"/>
 </g>
</svg>
