<?xml version="1.0" encoding="utf-8"?>
<!-- Generator: Adobe Illustrator 19.0.0, SVG Export Plug-In . SVG Version: 6.00 Build 0)  -->
<svg version="1.1" id="Layer_1" xmlns="http://www.w3.org/2000/svg" xmlns:xlink="http://www.w3.org/1999/xlink" x="0px" y="0px"
	 viewBox="-449 450.5 100 100" style="enable-background:new -449 450.5 100 100;" xml:space="preserve">
<style type="text/css">
	.st0{fill:#F9F9F9;}
</style>
<title>3.8</title>
<desc>Created with Sketch.</desc>
<g>
	<g>
		<path class="st0" d="M-408.3,493.1h-14.8l0,0c-4.1,0-7.4,3.3-7.4,7.4l0,0l0,0c0,4.1,3.3,7.4,7.4,7.4h14.8l0,0c1,0,1.9,0.8,1.9,1.9
			v14.8l0,0c0,4.1,3.3,7.4,7.4,7.4l0,0l0,0c4.1,0,7.4-3.3,7.4-7.4v-14.8l0,0c0-1,0.8-1.9,1.9-1.9h14.8l0,0c4.1,0,7.4-3.3,7.4-7.4
			l0,0l0,0c0-4.1-3.3-7.4-7.4-7.4h-14.8l0,0c-1,0-1.9-0.8-1.9-1.9v-14.8l0,0c0-4.1-3.3-7.4-7.4-7.4l0,0l0,0c-4.1,0-7.4,3.3-7.4,7.4
			v14.8l0,0C-406.4,492.3-407.2,493.1-408.3,493.1z"/>
	</g>
</g>
</svg>
