<?xml version="1.0" encoding="UTF-8"?>
<svg width="700pt" height="700pt" version="1.1" viewBox="0 0 700 700" xmlns="http://www.w3.org/2000/svg" xmlns:xlink="http://www.w3.org/1999/xlink">
 <g>
  <path fill="#c7c7c7" d="m254.66 56.031v138.77h190.75v-138.77zm33.602 12.426h21c6.1758-0.007812 11.191 5.0078 11.199 11.199v88.551c-0.007812 6.1914-5.0234 11.207-11.199 11.199h-21c-6.1797 0.007812-11.195-5.0078-11.203-11.199v-88.551c0.007812-6.1914 5.0234-11.207 11.203-11.199z" fill-rule="evenodd"/>
  <path fill="#c7c7c7" d="m131.6 56h100.62v150.07c0 6.1836 5.0156 11.199 11.199 11.199h213.11c6.1836 0 11.199-5.0156 11.199-11.199v-150.07h30.066l70.609 70.773v377.23h-54.539v-202.85c0-6.1836-5.0117-11.199-11.199-11.199h-305.33c-6.1875 0-11.199 5.0156-11.199 11.199v202.85h-54.535v-448z" fill-rule="evenodd"/>
  <path fill="#c7c7c7" d="m208.54 312.35h282.93v44.461h-282.93z" fill-rule="evenodd"/>
  <path fill="#c7c7c7" d="m208.54 379.21h282.93v56.461h-282.93z" fill-rule="evenodd"/>
  <path fill="#c7c7c7" d="m208.54 458.07h282.93v45.926h-282.93z" fill-rule="evenodd"/>
 </g>
</svg>
