<?xml version="1.0" encoding="utf-8"?>
<!-- Generator: Adobe Illustrator 19.0.0, SVG Export Plug-In . SVG Version: 6.00 Build 0)  -->
<svg version="1.1" id="Layer_1" xmlns="http://www.w3.org/2000/svg" xmlns:xlink="http://www.w3.org/1999/xlink" x="0px" y="0px"
	 viewBox="0 0 1000 1000" style="enable-background:new 0 0 1000 1000;" xml:space="preserve">
<style type="text/css">
	.st0{fill:#F9F9F9;}
</style>
<g>
	<path class="st0" d="M500,10C227,10,10,227,10,500s217,490,490,490s490-217,490-490S773,10,500,10z M500,206c77,0,140,63,140,140
		s-63,140-140,140s-140-63-140-140S423,206,500,206z M801,773c-77,77-182,133-301,133s-224-49-301-133c-21-21-21-56,0-77
		c77-84,182-140,301-140s224,56,301,140C822,717,822,752,801,773z"/>
</g>
</svg>
