<?xml version="1.0" encoding="utf-8"?>
<!-- Generator: Adobe Illustrator 19.0.0, SVG Export Plug-In . SVG Version: 6.00 Build 0)  -->
<svg version="1.1"
	 id="svg3013" xmlns:cc="http://creativecommons.org/ns#" xmlns:dc="http://purl.org/dc/elements/1.1/" xmlns:rdf="http://www.w3.org/1999/02/22-rdf-syntax-ns#" xmlns:inkscape="http://www.inkscape.org/namespaces/inkscape" xmlns:svg="http://www.w3.org/2000/svg" xmlns:sodipodi="http://sodipodi.sourceforge.net/DTD/sodipodi-0.dtd" sodipodi:docname="plus_font_awesome.svg" inkscape:version="0.48.3.1 r9886"
	 xmlns="http://www.w3.org/2000/svg" xmlns:xlink="http://www.w3.org/1999/xlink" x="0px" y="0px" viewBox="0 0 1000 1000"
	 style="enable-background:new 0 0 1000 1000;" xml:space="preserve">
<style type="text/css">
	.st0{fill:#F9F9F9;}
</style>
<g id="g3015" transform="matrix(1,0,0,-1,205.01695,1368.9492)">
	<path id="path3017" inkscape:connector-curvature="0" class="st0" d="M687.8,922.5V815.4c0-14.9-5.2-27.5-15.6-37.9
		c-10.4-10.4-23.1-15.6-37.9-15.6H402.1V529.7c0-14.9-5.2-27.5-15.6-37.9c-10.4-10.4-23.1-15.6-37.9-15.6H241.4
		c-14.9,0-27.5,5.2-37.9,15.6c-10.4,10.4-15.6,23.1-15.6,37.9v232.1H-44.3c-14.9,0-27.5,5.2-37.9,15.6
		c-10.4,10.4-15.6,23.1-15.6,37.9v107.1c0,14.9,5.2,27.5,15.6,37.9c10.4,10.4,23.1,15.6,37.9,15.6h232.1v232.1
		c0,14.9,5.2,27.5,15.6,37.9s23.1,15.6,37.9,15.6h107.1c14.9,0,27.5-5.2,37.9-15.6c10.4-10.4,15.6-23.1,15.6-37.9V976.1h232.1
		c14.9,0,27.5-5.2,37.9-15.6C682.6,950.1,687.8,937.4,687.8,922.5z"/>
</g>
</svg>
