<svg xmlns:dc="http://purl.org/dc/elements/1.1/" xmlns:cc="http://creativecommons.org/ns#" xmlns:rdf="http://www.w3.org/1999/02/22-rdf-syntax-ns#" xmlns:svg="http://www.w3.org/2000/svg" xmlns="http://www.w3.org/2000/svg" xmlns:sodipodi="http://sodipodi.sourceforge.net/DTD/sodipodi-0.dtd" xmlns:inkscape="http://www.inkscape.org/namespaces/inkscape" version="1.1" x="0px" y="0px" viewBox="0 0 100 125"><g transform="translate(0,-952.36218)"><path d="m 74.495499,954.87866 -34.99726,6.0009 c -1.55797,0.2705 -2.72397,1.9451 -2.43731,3.5006 l 10.06171,53.10204 c -2.67426,-0.4975 -5.4704,-0.5939 -8.31185,-0.5939 -5.78146,0 -11.0733,1.7754 -15.06132,4.7507 -3.98802,2.9755 -6.74947,7.3226 -6.74947,12.2207 0,4.9228 2.90839,9.1065 6.9682,11.8144 4.05982,2.7078 9.34121,4.1881 15.03008,4.1881 5.68886,0 10.97027,-1.4803 15.03007,-4.1881 4.0598,-2.7079 6.96812,-6.8916 6.9682,-11.8144 -2.62573,-21.6707 -7.6618,-43.12714 -11.21787,-62.32214 l 29.68518,5.2508 c 1.01039,0.1855 2.10575,-0.1922 2.78708,-0.9613 0.68133,-0.769 0.92457,-1.9021 0.6189,-2.883 l -4.99961,-16.0025 c -0.84373,-1.6066 -2.10255,-2.1884 -3.37473,-2.0629 z" style="text-indent:0;text-transform:none;direction:ltr;block-progression:tb;baseline-shift:baseline;color:#F9F9F9;enable-background:accumulate;" fill="#F9F9F9" fill-opacity="1" stroke="none" marker="none" visibility="visible" display="inline" overflow="visible"/></g></svg>