<?xml version="1.0" encoding="utf-8"?>
<!-- Generator: Adobe Illustrator 19.0.0, SVG Export Plug-In . SVG Version: 6.00 Build 0)  -->
<svg version="1.1" id="Слой_1" xmlns="http://www.w3.org/2000/svg" xmlns:xlink="http://www.w3.org/1999/xlink" x="0px" y="0px"
	 viewBox="-4935 4937 128 128" style="enable-background:new -4935 4937 128 128;" xml:space="preserve">
<style type="text/css">
	.st0{fill:#F9F9F9;}
</style>
<g>
	<path class="st0" d="M-4842,4989.6h-44.2c-6.3,0-11.4,5.1-11.4,11.4s5.1,11.4,11.4,11.4h33.6c2.2,0,3.8-1.7,3.8-3.8
		s-1.7-3.8-3.8-3.8h-33.6c-2.2,0-3.8-1.7-3.8-3.8s1.7-3.8,3.8-3.8h44.2c6.3,0,11.4,5.1,11.4,11.4s-5.1,11.4-11.4,11.4h-50.3
		c-10.6,0-19-8.6-19-19s8.6-19,19-19h22.8c2.2,0,3.8-1.7,3.8-3.8s-1.7-3.8-3.8-3.8h-22.8c-14.7,0-26.6,11.9-26.6,26.6
		s11.9,26.6,26.6,26.6h50.3c10.4,0,19-8.6,19-19S-4831.6,4989.6-4842,4989.6z"/>
</g>
</svg>
