<?xml version="1.0" encoding="utf-8"?>
<!-- Generator: Adobe Illustrator 19.0.0, SVG Export Plug-In . SVG Version: 6.00 Build 0)  -->
<svg version="1.1" id="Layer_1" xmlns="http://www.w3.org/2000/svg" xmlns:xlink="http://www.w3.org/1999/xlink" x="0px" y="0px"
	 viewBox="-449 450.5 100 100" style="enable-background:new -449 450.5 100 100;" xml:space="preserve">
<style type="text/css">
	.st0{fill:#F9F9F9;}
</style>
<title>setng cog</title>
<path class="st0" d="M-396.6,537.2h-4.8c-1.5,0-2.9-0.8-3.7-2c-0.3-0.5-2.5-4.1-3.5-6.2l-3.8-1.6c-2.3,0.7-6.5,1.8-6.9,1.9
	c-1.5,0.3-3-0.1-4.1-1.2l-3.4-3.4c-1.1-1.1-1.5-2.6-1.2-4.1c0.1-0.6,1.1-4.6,1.9-6.9l-1.6-3.8c-2.2-1.1-5.9-3.3-6.2-3.5
	c-1.3-0.8-2-2.2-2-3.7v-4.8c0-1.5,0.8-2.9,2-3.7c0.5-0.3,4.1-2.5,6.2-3.5l1.6-3.8c-0.7-2.3-1.8-6.5-1.9-6.9c-0.3-1.5,0.1-3,1.2-4.1
	l3.4-3.4c1.1-1.1,2.6-1.5,4.1-1.2c0.6,0.1,4.6,1.1,6.9,1.9l3.8-1.6c1.1-2.2,3.3-5.9,3.5-6.2c0.8-1.3,2.2-2,3.7-2h4.8
	c1.5,0,2.9,0.8,3.7,2c0.3,0.5,2.5,4.1,3.5,6.2l3.8,1.6c2.3-0.7,6.5-1.8,6.9-1.9c1.5-0.3,3,0.1,4.1,1.2l3.4,3.4
	c1.1,1.1,1.5,2.6,1.2,4.1c-0.1,0.6-1.1,4.6-1.9,6.9l1.6,3.8c2.2,1.1,5.9,3.3,6.2,3.5c1.3,0.8,2,2.2,2,3.7v4.8c0,1.5-0.8,2.9-2,3.7
	c-0.5,0.3-4.1,2.5-6.2,3.5l-1.5,3.8c0.7,2.3,1.8,6.5,1.9,6.9c0.3,1.5-0.1,3-1.2,4.1l-3.4,3.4c-1.1,1.1-2.6,1.5-4.1,1.2
	c-0.6-0.1-4.6-1.1-6.9-1.9l-3.8,1.6c-1.1,2.2-3.3,5.9-3.5,6.2C-393.7,536.5-395.1,537.2-396.6,537.2z M-412.3,523.1l6.7,2.8l0.3,0.7
	c0.7,1.5,3.1,5.6,3.7,6.4c0.1,0.1,0.1,0.1,0.2,0.1h4.8c0.1,0,0.2,0,0.2-0.1c0.4-0.7,2.9-4.9,3.7-6.4l0.3-0.7l6.7-2.8l0.7,0.3
	c1.5,0.6,6.2,1.7,7.1,2c0.1,0,0.2,0,0.3-0.1l3.4-3.4c0.1-0.1,0.1-0.2,0.1-0.3c-0.2-0.8-1.4-5.5-2-7.1l-0.3-0.7l2.8-6.7l0.7-0.3
	c1.5-0.7,5.6-3.1,6.4-3.7c0.1-0.1,0.1-0.1,0.1-0.2v-4.8c0-0.1,0-0.2-0.1-0.2l0,0c-0.7-0.4-4.9-2.9-6.4-3.7l-0.7-0.3l-2.8-6.7
	l0.3-0.7c0.6-1.5,1.7-6.2,2-7.1c0-0.1,0-0.2-0.1-0.3l-3.4-3.4c-0.1-0.1-0.2-0.1-0.3-0.1c-0.8,0.2-5.5,1.4-7.1,2l-0.7,0.3l-6.7-2.8
	l-0.3-0.7c-0.7-1.5-3.1-5.6-3.7-6.4c-0.1-0.1-0.1-0.1-0.2-0.1h-4.7c-0.1,0-0.2,0-0.2,0.1c-0.4,0.7-2.9,4.9-3.7,6.4l-0.3,0.7
	l-6.7,2.8l-0.7-0.3c-1.5-0.6-6.2-1.7-7.1-2c-0.1,0-0.2,0-0.3,0.1l-3.4,3.4c-0.1,0.1-0.1,0.2-0.1,0.3c0.2,0.8,1.4,5.5,2,7.1l0.3,0.7
	l-2.8,6.7l-0.7,0.3c-1.5,0.7-5.6,3.1-6.4,3.7c-0.1,0.1-0.1,0.1-0.1,0.2v4.8c0,0.1,0,0.2,0.1,0.2c0.7,0.4,4.9,2.9,6.4,3.7l0.7,0.3
	l2.8,6.7l-0.3,0.7c-0.6,1.5-1.7,6.2-2,7.1c0,0.1,0,0.2,0.1,0.3l3.4,3.4c0.1,0.1,0.2,0.1,0.3,0.1c0.8-0.2,5.5-1.4,7.1-2L-412.3,523.1
	z M-399,517.7c-9.5,0-17.2-7.7-17.2-17.2c0-9.5,7.7-17.2,17.2-17.2c9.5,0,17.2,7.7,17.2,17.2l0,0C-381.8,510-389.5,517.6-399,517.7z
	 M-399,487.4c-7.2,0-13.1,5.9-13.1,13.1c0,7.2,5.9,13.1,13.1,13.1c7.2,0,13.1-5.9,13.1-13.1l0,0C-385.9,493.3-391.8,487.4-399,487.4
	z"/>
</svg>
